<?xml version="1.0" standalone="no"?>
<!DOCTYPE svg PUBLIC "-//W3C//DTD SVG 20010904//EN"
 "http://www.w3.org/TR/2001/REC-SVG-20010904/DTD/svg10.dtd">
<svg version="1.0" xmlns="http://www.w3.org/2000/svg"
 width="300.000000pt" height="300.000000pt" viewBox="0 0 300.000000 300.000000"
 preserveAspectRatio="xMidYMid meet">
<metadata>
Created by potrace 1.14, written by Peter Selinger 2001-2017
</metadata>
<g transform="translate(0.000000,300.000000) scale(0.100000,-0.100000)"
fill="#000000" stroke="none">
<path d="M747 2598 c-16 -12 -17 -48 -15 -563 l3 -550 35 -5 c19 -3 51 -3 70
0 l35 5 3 249 2 248 88 -4 c73 -3 94 -8 123 -28 65 -46 85 -83 175 -314 30
-78 60 -145 65 -151 5 -6 89 -12 187 -15 l177 -5 5 -495 5 -495 35 -5 c19 -3
51 -3 70 0 l35 5 3 498 2 497 165 0 c152 0 165 1 175 19 13 25 13 67 0 92 -10
18 -25 19 -374 19 l-363 0 -48 118 c-68 166 -101 226 -151 272 l-43 40 47 24
c64 32 128 103 142 158 7 23 12 74 12 112 -1 123 -63 211 -182 258 -49 20 -78
22 -260 26 -159 3 -209 0 -223 -10z m403 -137 c94 -50 126 -155 78 -251 -37
-73 -86 -94 -230 -98 l-118 -4 0 187 0 187 123 -4 c74 -2 132 -9 147 -17z"/>
</g>
</svg>
